<mxfile host="app.diagrams.net" modified="2023-06-30T07:33:37.218Z" agent="Mozilla/5.0 (Windows NT 10.0; Win64; x64) AppleWebKit/537.36 (KHTML, like Gecko) Chrome/114.0.0.0 Safari/537.36" etag="WATAhnTmP6modEaD71Rb" version="21.5.0" type="device">
  <diagram name="페이지-1" id="CmbqLFTfCz7-DXL14rhW">
    <mxGraphModel dx="1687" dy="927" grid="1" gridSize="10" guides="1" tooltips="1" connect="1" arrows="1" fold="1" page="1" pageScale="1" pageWidth="4681" pageHeight="3300" math="0" shadow="0">
      <root>
        <mxCell id="0" />
        <mxCell id="1" parent="0" />
        <mxCell id="NcLn0xxRj4DYkD7V74Z5-10" style="rounded=0;orthogonalLoop=1;jettySize=auto;html=1;entryX=0.5;entryY=0;entryDx=0;entryDy=0;exitX=0.5;exitY=1;exitDx=0;exitDy=0;" edge="1" parent="1" source="NcLn0xxRj4DYkD7V74Z5-4" target="NcLn0xxRj4DYkD7V74Z5-27">
          <mxGeometry relative="1" as="geometry">
            <mxPoint x="960" y="540" as="targetPoint" />
          </mxGeometry>
        </mxCell>
        <mxCell id="NcLn0xxRj4DYkD7V74Z5-11" style="rounded=0;orthogonalLoop=1;jettySize=auto;html=1;entryX=0.5;entryY=0;entryDx=0;entryDy=0;exitX=0.5;exitY=1;exitDx=0;exitDy=0;" edge="1" parent="1" source="NcLn0xxRj4DYkD7V74Z5-4" target="NcLn0xxRj4DYkD7V74Z5-6">
          <mxGeometry relative="1" as="geometry" />
        </mxCell>
        <mxCell id="NcLn0xxRj4DYkD7V74Z5-12" style="rounded=0;orthogonalLoop=1;jettySize=auto;html=1;entryX=0.5;entryY=0;entryDx=0;entryDy=0;exitX=0.5;exitY=1;exitDx=0;exitDy=0;" edge="1" parent="1" source="NcLn0xxRj4DYkD7V74Z5-4" target="NcLn0xxRj4DYkD7V74Z5-7">
          <mxGeometry relative="1" as="geometry" />
        </mxCell>
        <mxCell id="NcLn0xxRj4DYkD7V74Z5-13" style="rounded=0;orthogonalLoop=1;jettySize=auto;html=1;entryX=0.5;entryY=0;entryDx=0;entryDy=0;exitX=0.5;exitY=1;exitDx=0;exitDy=0;" edge="1" parent="1" source="NcLn0xxRj4DYkD7V74Z5-4" target="NcLn0xxRj4DYkD7V74Z5-8">
          <mxGeometry relative="1" as="geometry" />
        </mxCell>
        <mxCell id="NcLn0xxRj4DYkD7V74Z5-14" style="rounded=0;orthogonalLoop=1;jettySize=auto;html=1;entryX=0.5;entryY=0;entryDx=0;entryDy=0;exitX=0.5;exitY=1;exitDx=0;exitDy=0;" edge="1" parent="1" source="NcLn0xxRj4DYkD7V74Z5-4" target="NcLn0xxRj4DYkD7V74Z5-9">
          <mxGeometry relative="1" as="geometry" />
        </mxCell>
        <mxCell id="NcLn0xxRj4DYkD7V74Z5-65" style="edgeStyle=none;shape=connector;rounded=0;orthogonalLoop=1;jettySize=auto;html=1;entryX=0.5;entryY=1;entryDx=0;entryDy=0;labelBackgroundColor=default;strokeColor=default;fontFamily=Helvetica;fontSize=11;fontColor=default;endArrow=classic;" edge="1" parent="1" source="NcLn0xxRj4DYkD7V74Z5-4" target="NcLn0xxRj4DYkD7V74Z5-60">
          <mxGeometry relative="1" as="geometry" />
        </mxCell>
        <mxCell id="NcLn0xxRj4DYkD7V74Z5-4" value="회원정보" style="rounded=1;arcSize=10;whiteSpace=wrap;html=1;align=center;" vertex="1" parent="1">
          <mxGeometry x="1150" y="360" width="180" height="80" as="geometry" />
        </mxCell>
        <mxCell id="NcLn0xxRj4DYkD7V74Z5-6" value="패스워드" style="ellipse;whiteSpace=wrap;html=1;align=center;" vertex="1" parent="1">
          <mxGeometry x="1050" y="540" width="100" height="40" as="geometry" />
        </mxCell>
        <mxCell id="NcLn0xxRj4DYkD7V74Z5-7" value="이름" style="ellipse;whiteSpace=wrap;html=1;align=center;" vertex="1" parent="1">
          <mxGeometry x="1190" y="540" width="100" height="40" as="geometry" />
        </mxCell>
        <mxCell id="NcLn0xxRj4DYkD7V74Z5-8" value="전화번호" style="ellipse;whiteSpace=wrap;html=1;align=center;" vertex="1" parent="1">
          <mxGeometry x="1330" y="540" width="100" height="40" as="geometry" />
        </mxCell>
        <mxCell id="NcLn0xxRj4DYkD7V74Z5-9" value="성별" style="ellipse;whiteSpace=wrap;html=1;align=center;" vertex="1" parent="1">
          <mxGeometry x="1470" y="540" width="100" height="40" as="geometry" />
        </mxCell>
        <mxCell id="NcLn0xxRj4DYkD7V74Z5-27" value="ID" style="ellipse;whiteSpace=wrap;html=1;align=center;fontStyle=4;fontFamily=Helvetica;fontSize=11;fontColor=default;" vertex="1" parent="1">
          <mxGeometry x="910" y="540" width="100" height="40" as="geometry" />
        </mxCell>
        <mxCell id="NcLn0xxRj4DYkD7V74Z5-28" style="rounded=0;orthogonalLoop=1;jettySize=auto;html=1;entryX=0.5;entryY=0;entryDx=0;entryDy=0;exitX=0.5;exitY=1;exitDx=0;exitDy=0;" edge="1" source="NcLn0xxRj4DYkD7V74Z5-33" target="NcLn0xxRj4DYkD7V74Z5-38" parent="1">
          <mxGeometry relative="1" as="geometry">
            <mxPoint x="250" y="540" as="targetPoint" />
          </mxGeometry>
        </mxCell>
        <mxCell id="NcLn0xxRj4DYkD7V74Z5-29" style="rounded=0;orthogonalLoop=1;jettySize=auto;html=1;entryX=0.5;entryY=0;entryDx=0;entryDy=0;exitX=0.5;exitY=1;exitDx=0;exitDy=0;" edge="1" source="NcLn0xxRj4DYkD7V74Z5-33" target="NcLn0xxRj4DYkD7V74Z5-34" parent="1">
          <mxGeometry relative="1" as="geometry" />
        </mxCell>
        <mxCell id="NcLn0xxRj4DYkD7V74Z5-30" style="rounded=0;orthogonalLoop=1;jettySize=auto;html=1;entryX=0.5;entryY=0;entryDx=0;entryDy=0;exitX=0.5;exitY=1;exitDx=0;exitDy=0;" edge="1" source="NcLn0xxRj4DYkD7V74Z5-33" target="NcLn0xxRj4DYkD7V74Z5-35" parent="1">
          <mxGeometry relative="1" as="geometry" />
        </mxCell>
        <mxCell id="NcLn0xxRj4DYkD7V74Z5-31" style="rounded=0;orthogonalLoop=1;jettySize=auto;html=1;entryX=0.5;entryY=0;entryDx=0;entryDy=0;exitX=0.5;exitY=1;exitDx=0;exitDy=0;" edge="1" source="NcLn0xxRj4DYkD7V74Z5-33" target="NcLn0xxRj4DYkD7V74Z5-36" parent="1">
          <mxGeometry relative="1" as="geometry" />
        </mxCell>
        <mxCell id="NcLn0xxRj4DYkD7V74Z5-32" style="rounded=0;orthogonalLoop=1;jettySize=auto;html=1;entryX=0.5;entryY=0;entryDx=0;entryDy=0;exitX=0.5;exitY=1;exitDx=0;exitDy=0;" edge="1" source="NcLn0xxRj4DYkD7V74Z5-33" target="NcLn0xxRj4DYkD7V74Z5-37" parent="1">
          <mxGeometry relative="1" as="geometry" />
        </mxCell>
        <mxCell id="NcLn0xxRj4DYkD7V74Z5-84" style="edgeStyle=none;shape=connector;rounded=0;orthogonalLoop=1;jettySize=auto;html=1;entryX=0.5;entryY=1;entryDx=0;entryDy=0;labelBackgroundColor=default;strokeColor=default;fontFamily=Helvetica;fontSize=11;fontColor=default;endArrow=classic;" edge="1" parent="1" source="NcLn0xxRj4DYkD7V74Z5-33" target="NcLn0xxRj4DYkD7V74Z5-60">
          <mxGeometry relative="1" as="geometry" />
        </mxCell>
        <mxCell id="NcLn0xxRj4DYkD7V74Z5-33" value="정류소정보" style="rounded=1;arcSize=10;whiteSpace=wrap;html=1;align=center;" vertex="1" parent="1">
          <mxGeometry x="440" y="360" width="180" height="80" as="geometry" />
        </mxCell>
        <mxCell id="NcLn0xxRj4DYkD7V74Z5-34" value="정류소이름" style="ellipse;whiteSpace=wrap;html=1;align=center;" vertex="1" parent="1">
          <mxGeometry x="340" y="540" width="100" height="40" as="geometry" />
        </mxCell>
        <mxCell id="NcLn0xxRj4DYkD7V74Z5-35" value="지역" style="ellipse;whiteSpace=wrap;html=1;align=center;" vertex="1" parent="1">
          <mxGeometry x="480" y="540" width="100" height="40" as="geometry" />
        </mxCell>
        <mxCell id="NcLn0xxRj4DYkD7V74Z5-36" value="위도" style="ellipse;whiteSpace=wrap;html=1;align=center;" vertex="1" parent="1">
          <mxGeometry x="620" y="540" width="100" height="40" as="geometry" />
        </mxCell>
        <mxCell id="NcLn0xxRj4DYkD7V74Z5-37" value="경도" style="ellipse;whiteSpace=wrap;html=1;align=center;" vertex="1" parent="1">
          <mxGeometry x="760" y="540" width="100" height="40" as="geometry" />
        </mxCell>
        <mxCell id="NcLn0xxRj4DYkD7V74Z5-38" value="정류소ID" style="ellipse;whiteSpace=wrap;html=1;align=center;fontStyle=4;fontFamily=Helvetica;fontSize=11;fontColor=default;" vertex="1" parent="1">
          <mxGeometry x="200" y="540" width="100" height="40" as="geometry" />
        </mxCell>
        <mxCell id="NcLn0xxRj4DYkD7V74Z5-44" value="운행정보" style="rounded=1;arcSize=10;whiteSpace=wrap;html=1;align=center;" vertex="1" parent="1">
          <mxGeometry x="1370" y="690" width="180" height="80" as="geometry" />
        </mxCell>
        <mxCell id="NcLn0xxRj4DYkD7V74Z5-93" style="edgeStyle=none;shape=connector;rounded=0;orthogonalLoop=1;jettySize=auto;html=1;entryX=0.5;entryY=0;entryDx=0;entryDy=0;labelBackgroundColor=default;strokeColor=default;fontFamily=Helvetica;fontSize=11;fontColor=default;endArrow=classic;exitX=0.5;exitY=1;exitDx=0;exitDy=0;" edge="1" parent="1" source="NcLn0xxRj4DYkD7V74Z5-56" target="NcLn0xxRj4DYkD7V74Z5-91">
          <mxGeometry relative="1" as="geometry" />
        </mxCell>
        <mxCell id="NcLn0xxRj4DYkD7V74Z5-94" style="edgeStyle=none;shape=connector;rounded=0;orthogonalLoop=1;jettySize=auto;html=1;entryX=0.5;entryY=0;entryDx=0;entryDy=0;labelBackgroundColor=default;strokeColor=default;fontFamily=Helvetica;fontSize=11;fontColor=default;endArrow=classic;exitX=0.5;exitY=1;exitDx=0;exitDy=0;" edge="1" parent="1" source="NcLn0xxRj4DYkD7V74Z5-56" target="NcLn0xxRj4DYkD7V74Z5-90">
          <mxGeometry relative="1" as="geometry" />
        </mxCell>
        <mxCell id="NcLn0xxRj4DYkD7V74Z5-95" style="edgeStyle=none;shape=connector;rounded=0;orthogonalLoop=1;jettySize=auto;html=1;entryX=0.5;entryY=0;entryDx=0;entryDy=0;labelBackgroundColor=default;strokeColor=default;fontFamily=Helvetica;fontSize=11;fontColor=default;endArrow=classic;exitX=0.5;exitY=1;exitDx=0;exitDy=0;" edge="1" parent="1" source="NcLn0xxRj4DYkD7V74Z5-56" target="NcLn0xxRj4DYkD7V74Z5-78">
          <mxGeometry relative="1" as="geometry" />
        </mxCell>
        <mxCell id="NcLn0xxRj4DYkD7V74Z5-96" style="edgeStyle=none;shape=connector;rounded=0;orthogonalLoop=1;jettySize=auto;html=1;entryX=0.5;entryY=0;entryDx=0;entryDy=0;labelBackgroundColor=default;strokeColor=default;fontFamily=Helvetica;fontSize=11;fontColor=default;endArrow=classic;exitX=0.5;exitY=1;exitDx=0;exitDy=0;" edge="1" parent="1" source="NcLn0xxRj4DYkD7V74Z5-56" target="NcLn0xxRj4DYkD7V74Z5-79">
          <mxGeometry relative="1" as="geometry" />
        </mxCell>
        <mxCell id="NcLn0xxRj4DYkD7V74Z5-97" style="edgeStyle=none;shape=connector;rounded=0;orthogonalLoop=1;jettySize=auto;html=1;entryX=0.5;entryY=0;entryDx=0;entryDy=0;labelBackgroundColor=default;strokeColor=default;fontFamily=Helvetica;fontSize=11;fontColor=default;endArrow=classic;exitX=0.5;exitY=1;exitDx=0;exitDy=0;" edge="1" parent="1" source="NcLn0xxRj4DYkD7V74Z5-56" target="NcLn0xxRj4DYkD7V74Z5-80">
          <mxGeometry relative="1" as="geometry" />
        </mxCell>
        <mxCell id="NcLn0xxRj4DYkD7V74Z5-98" style="edgeStyle=none;shape=connector;rounded=0;orthogonalLoop=1;jettySize=auto;html=1;entryX=0.5;entryY=0;entryDx=0;entryDy=0;labelBackgroundColor=default;strokeColor=default;fontFamily=Helvetica;fontSize=11;fontColor=default;endArrow=classic;exitX=0.5;exitY=1;exitDx=0;exitDy=0;" edge="1" parent="1" source="NcLn0xxRj4DYkD7V74Z5-56" target="NcLn0xxRj4DYkD7V74Z5-81">
          <mxGeometry relative="1" as="geometry" />
        </mxCell>
        <mxCell id="NcLn0xxRj4DYkD7V74Z5-56" value="노선시간" style="rounded=1;arcSize=10;whiteSpace=wrap;html=1;align=center;" vertex="1" parent="1">
          <mxGeometry x="460" y="690" width="180" height="80" as="geometry" />
        </mxCell>
        <mxCell id="NcLn0xxRj4DYkD7V74Z5-87" style="edgeStyle=none;shape=connector;rounded=0;orthogonalLoop=1;jettySize=auto;html=1;entryX=0.5;entryY=1;entryDx=0;entryDy=0;labelBackgroundColor=default;strokeColor=default;fontFamily=Helvetica;fontSize=11;fontColor=default;endArrow=classic;exitX=0.5;exitY=0;exitDx=0;exitDy=0;" edge="1" parent="1" source="NcLn0xxRj4DYkD7V74Z5-60" target="NcLn0xxRj4DYkD7V74Z5-85">
          <mxGeometry relative="1" as="geometry" />
        </mxCell>
        <mxCell id="NcLn0xxRj4DYkD7V74Z5-88" style="edgeStyle=none;shape=connector;rounded=0;orthogonalLoop=1;jettySize=auto;html=1;entryX=0.5;entryY=1;entryDx=0;entryDy=0;labelBackgroundColor=default;strokeColor=default;fontFamily=Helvetica;fontSize=11;fontColor=default;endArrow=classic;exitX=0.5;exitY=0;exitDx=0;exitDy=0;" edge="1" parent="1" source="NcLn0xxRj4DYkD7V74Z5-60" target="NcLn0xxRj4DYkD7V74Z5-86">
          <mxGeometry relative="1" as="geometry" />
        </mxCell>
        <mxCell id="NcLn0xxRj4DYkD7V74Z5-60" value="즐겨찾기" style="shape=rhombus;perimeter=rhombusPerimeter;whiteSpace=wrap;html=1;align=center;fontFamily=Helvetica;fontSize=11;fontColor=default;" vertex="1" parent="1">
          <mxGeometry x="830" y="280" width="120" height="60" as="geometry" />
        </mxCell>
        <mxCell id="NcLn0xxRj4DYkD7V74Z5-78" value="출발시간" style="ellipse;whiteSpace=wrap;html=1;align=center;" vertex="1" parent="1">
          <mxGeometry x="430" y="840" width="100" height="40" as="geometry" />
        </mxCell>
        <mxCell id="NcLn0xxRj4DYkD7V74Z5-79" value="도착시간" style="ellipse;whiteSpace=wrap;html=1;align=center;" vertex="1" parent="1">
          <mxGeometry x="570" y="840" width="100" height="40" as="geometry" />
        </mxCell>
        <mxCell id="NcLn0xxRj4DYkD7V74Z5-80" value="소요시간" style="ellipse;whiteSpace=wrap;html=1;align=center;" vertex="1" parent="1">
          <mxGeometry x="710" y="840" width="100" height="40" as="geometry" />
        </mxCell>
        <mxCell id="NcLn0xxRj4DYkD7V74Z5-81" value="요금" style="ellipse;whiteSpace=wrap;html=1;align=center;" vertex="1" parent="1">
          <mxGeometry x="850" y="840" width="100" height="40" as="geometry" />
        </mxCell>
        <mxCell id="NcLn0xxRj4DYkD7V74Z5-85" value="출발지" style="ellipse;whiteSpace=wrap;html=1;align=center;" vertex="1" parent="1">
          <mxGeometry x="770" y="210" width="100" height="40" as="geometry" />
        </mxCell>
        <mxCell id="NcLn0xxRj4DYkD7V74Z5-86" value="목적지" style="ellipse;whiteSpace=wrap;html=1;align=center;" vertex="1" parent="1">
          <mxGeometry x="910" y="210" width="100" height="40" as="geometry" />
        </mxCell>
        <mxCell id="NcLn0xxRj4DYkD7V74Z5-90" value="도착정류소" style="ellipse;whiteSpace=wrap;html=1;align=center;" vertex="1" parent="1">
          <mxGeometry x="290" y="840" width="100" height="40" as="geometry" />
        </mxCell>
        <mxCell id="NcLn0xxRj4DYkD7V74Z5-91" value="출발정류소" style="ellipse;whiteSpace=wrap;html=1;align=center;" vertex="1" parent="1">
          <mxGeometry x="150" y="840" width="100" height="40" as="geometry" />
        </mxCell>
      </root>
    </mxGraphModel>
  </diagram>
</mxfile>
